<?xml version="1.0" encoding="UTF-8" standalone="no"?>
<!DOCTYPE svg PUBLIC "-//W3C//DTD SVG 1.1//EN" "http://www.w3.org/Graphics/SVG/1.1/DTD/svg11.dtd">
<svg width="320" height="320" viewBox="0 0 320 320" version="1.1" xmlns="http://www.w3.org/2000/svg" xmlns:xlink="http://www.w3.org/1999/xlink" xml:space="preserve" xmlns:serif="http://www.serif.com/" style="fill-rule:evenodd;clip-rule:evenodd;stroke-linejoin:round;stroke-miterlimit:2;">
    <g id="numbered">
        <g transform="matrix(0.533333,0,0,0.533333,0,0)">
            <circle cx="300" cy="300" r="300" style="fill:rgb(204,204,204);"/>
        </g>
        <path d="M108.5,82.875L108.5,238.625L79.25,238.625L79.25,97.375L56,100.375L56,89.625L108.5,82.875ZM146.25,224.125C137,216.125 132.75,190.625 132.75,163.875C132.75,133.625 138.25,102.125 147.5,94.875C159.75,85.375 179,80.375 198.25,80.375C217.75,80.375 237,85.375 249.25,94.875C258.5,102.125 264,133.625 264,163.875C264,190.625 259.75,216.125 250.5,224.125C238.5,234.375 218.5,239.625 198.25,239.625C178.25,239.625 158.25,234.375 146.25,224.125ZM170.5,103.625C165.25,110.125 163,135.625 163,160.625C163,184.875 165.25,208.625 169.5,215.125C176,224.875 187.25,229.625 198.25,229.625C209.5,229.625 220.75,224.875 227.25,215.125C231.5,208.625 233.75,184.875 233.75,160.625C233.75,135.625 231.25,110.125 226.25,103.625C219.5,95.375 208.75,91.125 198.25,91.125C187.75,91.125 177.25,95.375 170.5,103.625Z"/>
    </g>
</svg>
