<?xml version="1.0" encoding="UTF-8" standalone="no"?>
<!DOCTYPE svg PUBLIC "-//W3C//DTD SVG 1.1//EN" "http://www.w3.org/Graphics/SVG/1.1/DTD/svg11.dtd">
<svg width="320" height="320" viewBox="0 0 320 320" version="1.1" xmlns="http://www.w3.org/2000/svg" xmlns:xlink="http://www.w3.org/1999/xlink" xml:space="preserve" xmlns:serif="http://www.serif.com/" style="fill-rule:evenodd;clip-rule:evenodd;stroke-linejoin:round;stroke-miterlimit:2;">
    <g id="numbered">
        <g transform="matrix(0.533333,0,0,0.533333,0,0)">
            <circle cx="300" cy="300" r="300" style="fill:rgb(204,204,204);"/>
        </g>
        <path d="M111.875,82.125L111.875,237.875L82.625,237.875L82.625,96.625L59.375,99.625L59.375,88.875L111.875,82.125ZM136.125,221.875L146.125,214.875L146.375,215.125C154.125,223.875 169.875,228.125 185.875,228.125C205.375,228.125 225.875,220.625 228.625,205.875C229.625,200.125 230.125,195.875 230.125,191.375C230.125,167.625 217.625,154.875 193.125,154.875L186.625,154.875L220.875,93.375L142.375,93.375L142.375,82.125L260.625,82.125L224.125,148.125C252.375,155.375 259.125,169.875 259.125,191.625C259.125,217.375 245.375,238.875 191.875,238.875C169.625,238.875 147.375,232.625 136.375,222.125L136.125,221.875Z"/>
    </g>
</svg>
