<?xml version="1.0" encoding="UTF-8" standalone="no"?>
<!DOCTYPE svg PUBLIC "-//W3C//DTD SVG 1.1//EN" "http://www.w3.org/Graphics/SVG/1.1/DTD/svg11.dtd">
<svg width="320" height="320" viewBox="0 0 320 320" version="1.1" xmlns="http://www.w3.org/2000/svg" xmlns:xlink="http://www.w3.org/1999/xlink" xml:space="preserve" xmlns:serif="http://www.serif.com/" style="fill-rule:evenodd;clip-rule:evenodd;stroke-linejoin:round;stroke-miterlimit:2;">
    <g id="numbered">
        <g transform="matrix(0.533333,0,0,0.533333,0,0)">
            <circle cx="300" cy="300" r="300" style="fill:rgb(204,204,204);"/>
        </g>
        <path d="M112.625,82.125L112.625,237.875L83.375,237.875L83.375,96.625L60.125,99.625L60.125,88.875L112.625,82.125ZM136.875,221.875L146.875,214.875L147.125,215.125C154.875,223.875 170.625,228.125 186.625,228.125C206.125,228.125 226.625,220.625 229.375,205.875C230.375,200.125 230.875,195.875 230.875,191.375C230.875,167.625 218.375,154.875 193.875,154.875L141.875,154.875L154.125,82.125L250.125,82.125L250.125,93.375L182.125,93.375L173.875,143.625L193.625,143.625C212.125,143.625 251.625,149.625 257.125,171.625C258.875,178.875 259.875,185.375 259.875,191.625C259.875,217.375 246.125,238.875 192.625,238.875C170.375,238.875 148.125,232.625 137.125,222.125L136.875,221.875Z"/>
    </g>
</svg>
