<?xml version="1.0" encoding="UTF-8" standalone="no"?>
<!DOCTYPE svg PUBLIC "-//W3C//DTD SVG 1.1//EN" "http://www.w3.org/Graphics/SVG/1.1/DTD/svg11.dtd">
<svg width="320" height="320" viewBox="0 0 320 320" version="1.1" xmlns="http://www.w3.org/2000/svg" xmlns:xlink="http://www.w3.org/1999/xlink" xml:space="preserve" xmlns:serif="http://www.serif.com/" style="fill-rule:evenodd;clip-rule:evenodd;stroke-linejoin:round;stroke-miterlimit:2;">
    <g id="numbered">
        <g transform="matrix(0.533333,0,0,0.533333,0,0)">
            <circle cx="300" cy="300" r="300" style="fill:rgb(204,204,204);"/>
        </g>
        <path d="M107.75,84.125L107.75,239.875L78.5,239.875L78.5,98.625L55.25,101.625L55.25,90.875L107.75,84.125ZM135.25,212.875C133,204.375 132,194.375 132,184.375L132,135.875C132,125.875 133,115.625 135.25,107.125C140,89.125 169.5,79.875 199,79.875C221.25,79.875 243.25,85.125 254.75,95.875L243.5,103.875C234.5,94.875 216.5,90.375 198.75,90.375C182.25,90.375 165.5,98.125 163,112.625C162,119.375 161.25,127.375 161.25,135.625L161.25,150.125C172.25,146.375 185.25,144.375 198.5,144.375C227.75,144.375 257.5,155.875 262,173.625C263.75,180.875 264.75,187.125 264.75,193.375C264.75,199.625 263.75,205.875 262,213.125C257.25,231.625 228,240.875 198.5,240.875C169.25,240.875 139.75,231.625 135.25,212.875ZM161.25,162.875L161.25,184.375C161.25,192.625 161.75,200.625 163,207.375C165.75,222.625 182,230.375 198.75,230.375C215.25,230.375 231.5,222.875 234.25,207.875C235.25,202.125 235.75,197.375 235.75,192.625C235.75,187.625 235.25,182.875 234.25,177.125C231.75,162.625 215.25,155.125 198.75,155.125L198.5,154.875L198.5,155.125C184.75,155.125 171,157.625 161.25,162.875Z"/>
    </g>
</svg>
