<?xml version="1.0" encoding="UTF-8" standalone="no"?>
<!DOCTYPE svg PUBLIC "-//W3C//DTD SVG 1.1//EN" "http://www.w3.org/Graphics/SVG/1.1/DTD/svg11.dtd">
<svg width="320" height="320" viewBox="0 0 320 320" version="1.1" xmlns="http://www.w3.org/2000/svg" xmlns:xlink="http://www.w3.org/1999/xlink" xml:space="preserve" xmlns:serif="http://www.serif.com/" style="fill-rule:evenodd;clip-rule:evenodd;stroke-linejoin:round;stroke-miterlimit:2;">
    <g id="numbered">
        <g transform="matrix(0.533333,0,0,0.533333,0,0)">
            <circle cx="300" cy="300" r="300" style="fill:rgb(204,204,204);"/>
        </g>
        <path d="M107.875,82.125L107.875,237.875L78.625,237.875L78.625,96.625L55.375,99.625L55.375,88.875L107.875,82.125ZM142.125,130.875C140.625,125.125 139.875,120.125 139.875,115.375C139.875,110.375 140.625,105.375 142.125,99.625C145.625,85.375 172.125,78.125 198.375,78.125C224.625,78.125 250.875,85.375 254.625,99.625C256.125,105.375 256.875,110.375 256.875,115.375C256.875,130.375 253.375,141.875 231.875,148.625C258.375,156.125 264.625,170.625 264.625,191.375C264.625,197.625 263.625,203.875 261.875,211.125C257.125,229.625 227.875,238.875 198.375,238.875C169.125,238.875 139.375,229.625 134.875,210.875C133.375,204.875 132.875,198.375 132.125,191.625C132.125,170.375 138.625,155.875 165.125,148.625C153.125,144.875 144.125,139.125 142.125,130.875ZM193.875,144.375C214.625,144.375 227.875,139.375 227.875,115.125C227.875,95.125 218.375,84.875 198.375,84.875C178.625,84.875 168.875,94.875 168.875,114.125C168.875,132.875 176.375,142.375 193.875,144.375ZM161.375,191.625C161.625,196.375 162.125,201.125 162.875,205.375C165.375,220.625 182.125,228.375 198.625,228.375C215.125,228.375 231.375,220.875 234.125,205.875C235.125,200.125 235.625,195.375 235.625,190.625C235.625,185.625 235.125,180.875 234.125,175.125C231.375,160.375 214.875,153.125 198.375,153.125C174.375,153.125 161.375,165.125 161.375,189.125L161.375,191.625Z"/>
    </g>
</svg>
