<?xml version="1.0" encoding="UTF-8" standalone="no"?>
<!DOCTYPE svg PUBLIC "-//W3C//DTD SVG 1.1//EN" "http://www.w3.org/Graphics/SVG/1.1/DTD/svg11.dtd">
<svg width="320" height="320" viewBox="0 0 320 320" version="1.1" xmlns="http://www.w3.org/2000/svg" xmlns:xlink="http://www.w3.org/1999/xlink" xml:space="preserve" xmlns:serif="http://www.serif.com/" style="fill-rule:evenodd;clip-rule:evenodd;stroke-linejoin:round;stroke-miterlimit:2;">
    <g id="numbered">
        <g transform="matrix(0.533333,0,0,0.533333,0,0)">
            <circle cx="300" cy="300" r="300" style="fill:rgb(204,204,204);"/>
        </g>
        <path d="M107.75,82.125L107.75,237.875L78.5,237.875L78.5,96.625L55.25,99.625L55.25,88.875L107.75,82.125ZM261.75,105.875C263.75,114.125 264.75,124.125 264.75,134.125L264.75,182.625C264.75,192.875 263.75,202.875 261.5,211.625C257,229.625 227.5,238.875 198,238.875C175.75,238.875 153.5,233.625 142,222.625L153.25,214.625C162.25,223.875 180.25,228.125 198,228.125C214.5,228.125 231,220.625 233.75,206.125C235,199.125 235.5,191.125 235.5,183.125L235.5,168.625C224.5,172.375 211.5,174.125 198.5,174.125C169,174.125 139.25,162.875 134.75,145.125C133,138.125 131.75,131.625 132,125.375C132,118.875 133,112.625 134.75,105.375C139.5,87.125 168.5,77.875 198,77.875C227.5,77.875 257,87.125 261.75,105.875ZM235.5,155.625L235.5,134.125C235.5,126.125 235,117.875 233.75,111.125C231,95.875 214.5,88.375 198,88.375C173.25,88.375 161,101.125 161,126.125C161,130.875 161.5,135.625 162.5,141.375C165.25,155.875 181.75,163.625 198,163.625L198.25,163.875L198.5,163.625C212,163.625 225.75,160.875 235.5,155.625Z"/>
    </g>
</svg>
