<?xml version="1.0" encoding="UTF-8" standalone="no"?>
<!DOCTYPE svg PUBLIC "-//W3C//DTD SVG 1.1//EN" "http://www.w3.org/Graphics/SVG/1.1/DTD/svg11.dtd">
<svg width="320" height="320" viewBox="0 0 320 320" version="1.1" xmlns="http://www.w3.org/2000/svg" xmlns:xlink="http://www.w3.org/1999/xlink" xml:space="preserve" xmlns:serif="http://www.serif.com/" style="fill-rule:evenodd;clip-rule:evenodd;stroke-linejoin:round;stroke-miterlimit:2;">
    <g id="numbered">
        <g transform="matrix(0.533333,0,0,0.533333,0,0)">
            <circle cx="300" cy="300" r="300" style="fill:rgb(204,204,204);"/>
        </g>
        <g transform="matrix(1,0,0,1,6,0)">
            <path d="M110.25,139.875C114.5,133.875 116.5,127.375 116.5,121.125C116.5,104.375 102.75,89.375 80,89.375C62.25,89.375 44.25,93.625 35.25,102.875L24,94.875C35.5,84.125 57.5,78.875 79.75,78.875C123.5,78.875 147.25,100.625 147.25,125.625C147.25,138.125 141.25,151.375 128.5,162.875C98.5,190.125 51.75,183.375 51.75,222.625L51.75,226.875L144.25,226.875L144.25,237.875L21.5,237.875C21.5,232.125 21.25,226.375 21.25,220.625C21.25,158.625 89.5,169.375 110.25,139.875ZM181,223.375C171.75,215.375 167.5,189.875 167.5,163.125C167.5,132.875 173,101.375 182.25,94.125C194.5,84.625 213.75,79.625 233,79.625C252.5,79.625 271.75,84.625 284,94.125C293.25,101.375 298.75,132.875 298.75,163.125C298.75,189.875 294.5,215.375 285.25,223.375C273.25,233.625 253.25,238.875 233,238.875C213,238.875 193,233.625 181,223.375ZM205.25,102.875C200,109.375 197.75,134.875 197.75,159.875C197.75,184.125 200,207.875 204.25,214.375C210.75,224.125 222,228.875 233,228.875C244.25,228.875 255.5,224.125 262,214.375C266.25,207.875 268.5,184.125 268.5,159.875C268.5,134.875 266,109.375 261,102.875C254.25,94.625 243.5,90.375 233,90.375C222.5,90.375 212,94.625 205.25,102.875Z"/>
        </g>
    </g>
</svg>
