<?xml version="1.0" encoding="UTF-8" standalone="no"?>
<!DOCTYPE svg PUBLIC "-//W3C//DTD SVG 1.1//EN" "http://www.w3.org/Graphics/SVG/1.1/DTD/svg11.dtd">
<svg width="320" height="320" viewBox="0 0 320 320" version="1.1" xmlns="http://www.w3.org/2000/svg" xmlns:xlink="http://www.w3.org/1999/xlink" xml:space="preserve" xmlns:serif="http://www.serif.com/" style="fill-rule:evenodd;clip-rule:evenodd;stroke-linejoin:round;stroke-miterlimit:2;">
    <g id="numbered">
        <g transform="matrix(0.533333,0,0,0.533333,0,0)">
            <circle cx="300" cy="300" r="300" style="fill:rgb(204,204,204);"/>
        </g>
        <g id="_36pt-single--30pt-double" serif:id="36pt single, 30pt double" transform="matrix(1,0,0,1,-74.7,92.85)">
            <path d="M160,140.8L160.3,141.1C173.5,153.7 200.2,161.2 226.9,161.2C291.1,161.2 307.6,135.4 307.6,104.5C307.6,78.4 299.5,61 265.6,52.3L309.4,-26.9L167.5,-26.9L167.5,-13.4L261.7,-13.4L220.6,60.4L228.4,60.4C257.8,60.4 272.8,75.7 272.8,104.2C272.8,109.6 272.2,114.7 271,121.6C267.7,139.3 243.1,148.3 219.7,148.3C200.5,148.3 181.6,143.2 172.3,132.7L172,132.4L160,140.8Z" style="fill-rule:nonzero;"/>
        </g>
    </g>
</svg>
