<?xml version="1.0" encoding="UTF-8" standalone="no"?>
<!DOCTYPE svg PUBLIC "-//W3C//DTD SVG 1.1//EN" "http://www.w3.org/Graphics/SVG/1.1/DTD/svg11.dtd">
<svg width="320" height="320" viewBox="0 0 320 320" version="1.1" xmlns="http://www.w3.org/2000/svg" xmlns:xlink="http://www.w3.org/1999/xlink" xml:space="preserve" xmlns:serif="http://www.serif.com/" style="fill-rule:evenodd;clip-rule:evenodd;stroke-linejoin:round;stroke-miterlimit:2;">
    <g id="numbered">
        <g transform="matrix(0.533333,0,0,0.533333,0,0)">
            <circle cx="300" cy="300" r="300" style="fill:rgb(204,204,204);"/>
        </g>
        <g id="_36pt-single--30pt-double" serif:id="36pt single, 30pt double" transform="matrix(1,0,0,1,-79.5,95.25)">
            <path d="M172,31.6C174.4,41.5 185.2,48.4 199.6,52.9C167.8,61.6 160,79 160,104.5C160.9,112.6 161.5,120.4 163.3,127.6C168.7,150.1 204.4,161.2 239.5,161.2C274.9,161.2 310,150.1 315.7,127.9C317.8,119.2 319,111.7 319,104.2C319,79.3 311.5,61.9 279.7,52.9C305.5,44.8 309.7,31 309.7,13C309.7,7 308.8,1 307,-5.9C302.5,-23 271,-31.7 239.5,-31.7C208,-31.7 176.2,-23 172,-5.9C170.2,1 169.3,7 169.3,13C169.3,18.7 170.2,24.7 172,31.6ZM234.1,47.8C213.1,45.4 204.1,34 204.1,11.5C204.1,-11.6 215.8,-23.6 239.5,-23.6C263.5,-23.6 274.9,-11.3 274.9,12.7C274.9,41.8 259,47.8 234.1,47.8ZM195.1,104.5L195.1,101.5C195.1,72.7 210.7,58.3 239.5,58.3C259.3,58.3 279.1,67 282.4,84.7C283.6,91.6 284.2,97.3 284.2,103.3C284.2,109 283.6,114.7 282.4,121.6C279.1,139.6 259.6,148.6 239.8,148.6C220,148.6 199.9,139.3 196.9,121C196,115.9 195.4,110.2 195.1,104.5Z" style="fill-rule:nonzero;"/>
        </g>
    </g>
</svg>
