<?xml version="1.0" encoding="UTF-8" standalone="no"?>
<!DOCTYPE svg PUBLIC "-//W3C//DTD SVG 1.1//EN" "http://www.w3.org/Graphics/SVG/1.1/DTD/svg11.dtd">
<svg width="320" height="320" viewBox="0 0 320 320" version="1.1" xmlns="http://www.w3.org/2000/svg" xmlns:xlink="http://www.w3.org/1999/xlink" xml:space="preserve" xmlns:serif="http://www.serif.com/" style="fill-rule:evenodd;clip-rule:evenodd;stroke-linejoin:round;stroke-miterlimit:2;">
    <g id="rotate">
        <g transform="matrix(0.533333,0,0,0.533333,0,0)">
            <circle cx="300" cy="300" r="300" style="fill:rgb(204,204,204);"/>
        </g>
        <g id="cw" transform="matrix(0.771427,0.771427,-0.771427,0.771427,150.81,-72.312)">
            <path d="M160,252.917C108.718,252.917 67.083,211.282 67.083,160C67.083,108.718 108.718,67.083 160,67.083L160,112.917C134.014,112.917 112.917,134.014 112.917,160C112.917,185.986 134.014,207.083 160,207.083C162.208,207.083 164,208.876 164,211.084L164,248.917C164,251.124 162.208,252.917 160,252.917ZM160.002,148.261L160.002,32.874C159.917,27.636 162.277,24.075 167.085,22.184C171.98,20.21 176.231,21.027 179.836,24.632L237.53,82.326C239.762,84.558 240.878,87.305 240.878,90.568C240.876,93.832 239.76,96.579 237.528,98.811L179.835,156.504C176.228,160.111 171.979,160.927 167.085,158.951C162.278,157.062 159.917,153.499 160.002,148.261Z"/>
        </g>
    </g>
</svg>
